# xmcd
#
# Track frame offsets: 
#        150
#        17557
#        32755
#        55292
#        70580
#        85697
#        103525
#        118090
#        138982
#        151980
#
# Disc length: 2237 seconds
#
# Revision: 2
# Processed by: cddbd v1.5.2PL0 Copyright (c) Steve Scherf et al.
# Submitted via: ExactAudioCopy v0.95b4
#
DISCID=7708bb0a
DTITLE=Thomas, Irma - The New Rules
DYEAR=1986
DGENRE=R&B
TTITLE0=The New Rules
TTITLE1=Gonna Cry 'Til My Tears Run Dry
TTITLE2=I Needed Somebody
TTITLE3=Good Things Don't Come Easy
TTITLE4=The Love of My Man
TTITLE5=One More Time
TTITLE6=Thinking of You
TTITLE7=The Wind Beneath My Wings (Hero)
TTITLE8=I Gave You Everything
TTITLE9=Yours Until Tomorrow
EXTD=
EXTT0=
EXTT1=
EXTT2=
EXTT3=
EXTT4=
EXTT5=
EXTT6=
EXTT7=
EXTT8=
EXTT9=
PLAYORDER=
